<?xml version="1.0" standalone="no"?><!DOCTYPE svg PUBLIC "-//W3C//DTD SVG 1.1//EN" "http://www.w3.org/Graphics/SVG/1.1/DTD/svg11.dtd"><svg t="1763517237692" class="icon" viewBox="0 0 1024 1024" version="1.1" xmlns="http://www.w3.org/2000/svg" p-id="2911" xmlns:xlink="http://www.w3.org/1999/xlink" width="200" height="200"><path d="M800 900H224c-90.44 0-164-73.56-164-164V288c0-90.44 73.56-164 164-164h576c90.44 0 164 73.56 164 164v448c0 90.44-73.56 164-164 164zM224 196c-50.72 0-92 41.28-92 92v448c0 50.72 41.28 92 92 92h576c50.72 0 92-41.28 92-92V288c0-50.72-41.28-92-92-92H224z" p-id="2912"></path><path d="M512 566.48c-32.96 0-65.96-10.6-93.44-31.76L108.88 296.52c-15.76-12.12-18.72-34.72-6.6-50.48 12.12-15.76 34.72-18.72 50.48-6.6l309.64 238.2c29.16 22.44 69.92 22.44 99.12 0l309.64-238.2c15.76-12.12 38.36-9.16 50.48 6.6 12.12 15.76 9.16 38.36-6.6 50.48l-309.64 238.2a153.092 153.092 0 0 1-93.44 31.76z" p-id="2913"></path></svg>